# File created by Blade
# Date/Time:  Thu Sep 25 19:26:26 2014
# Frame Rate: 120.000 fps
#------------------------------------------------------
:FULLY-SPECIFIED
:DEGREES
909
root 0.651336 31.596999 -12.367800 108.463599 36.497443 7.331104
Spine 43.881793 0.566859 -6.926622
Head 14.159195 -14.990981 -31.731607
LeftShoulder 9.280729 -50.589313 37.406554
LeftArm 34.477645 -20.058436 -40.744724
LeftForeArm 27.914405 -0.000000 44.716492
LeftHand -40.703330 -0.000000 66.716059
LeftHandThumb1 -26.253704 0.000000 33.147579
RightShoulder -10.767111 58.259023 -63.510527
RightArm 44.990689 9.137377 44.651960
RightForeArm -55.283047 -0.000000 50.737335
RightHand -15.672474 -0.000000 -23.663704
RightHandThumb1 -24.326973 -0.000000 -32.862282
LeftUpLeg -117.036068 4.705930 5.171150
LeftLeg -2.803215 -0.000000 0.000000
LeftFoot 11.918141 -6.722007 -26.044345
LeftToeBase 8.370191 -0.000000 -0.000000
RightUpLeg -104.981909 -18.198151 36.023076
RightLeg 0.573216 -0.000000 -0.000000
RightFoot -1.933100 -22.819706 20.061315
RightToeBase 5.142794 -0.000000 -0.000000
910
root 0.653786 31.598131 -12.380437 108.500829 36.356696 7.344831
Spine 43.921878 0.405355 -6.924064
Head 14.476450 -14.960257 -31.723970
LeftShoulder 9.298187 -50.646580 37.388451
LeftArm 34.474363 -20.109161 -40.660449
LeftForeArm 27.448061 -0.000000 44.474040
LeftHand -40.805217 -0.000000 67.974190
LeftHandThumb1 -26.253704 0.000000 33.147579
RightShoulder -10.961231 58.507377 -63.774404
RightArm 45.051732 9.004319 44.664901
RightForeArm -55.379746 0.000000 50.677702
RightHand -15.649017 -0.000000 -23.422463
RightHandThumb1 -24.326973 -0.000000 -32.862282
LeftUpLeg -117.067210 4.630463 5.049669
LeftLeg -2.832147 -0.000000 0.000000
LeftFoot 11.937729 -6.710864 -25.987447
LeftToeBase 9.076864 -0.000000 -0.000000
RightUpLeg -105.097735 -18.203381 36.016794
RightLeg 0.555008 -0.000000 -0.000000
RightFoot -1.868443 -22.723716 20.053538
RightToeBase 5.121891 -0.000000 -0.000000
911
root 0.651666 31.599794 -12.392271 108.520992 36.225439 7.301813
Spine 43.903275 0.370362 -6.897326
Head 14.790644 -15.083733 -31.622733
LeftShoulder 9.479949 -50.552812 37.224326
LeftArm 34.701370 -20.309659 -40.623264
LeftForeArm 27.224215 0.000000 44.107846
LeftHand -41.125683 -0.000000 69.139509
LeftHandThumb1 -26.253704 0.000000 33.147579
RightShoulder -11.074795 58.676233 -63.884805
RightArm 45.154491 8.853106 44.564700
RightForeArm -55.370166 -0.000000 50.580317
RightHand -15.647429 -0.000000 -23.234315
RightHandThumb1 -24.326973 -0.000000 -32.862282
LeftUpLeg -117.116352 4.632194 4.936465
LeftLeg -2.828863 -0.000000 0.000000
LeftFoot 11.811466 -6.723670 -25.761382
LeftToeBase 9.392577 -0.000000 -0.000000
RightUpLeg -105.188976 -18.147859 35.992495
RightLeg 0.517856 -0.000000 -0.000000
RightFoot -1.782968 -22.686157 20.004372
RightToeBase 5.144813 -0.000000 -0.000000
912
root 0.652058 31.600767 -12.403915 108.543134 36.101964 7.308722
Spine 43.926002 0.285853 -6.827478
Head 15.046022 -15.161192 -31.574831
LeftShoulder 9.608001 -50.555985 37.081243
LeftArm 34.785754 -20.426227 -40.557457
LeftForeArm 26.485219 0.000000 43.792037
LeftHand -40.879596 -0.000000 70.093424
LeftHandThumb1 -26.253704 0.000000 33.147579
RightShoulder -11.188264 58.805783 -64.035422
RightArm 45.273540 8.732403 44.478243
RightForeArm -55.362583 -0.000000 50.477633
RightHand -15.647621 0.000000 -23.034477
RightHandThumb1 -24.326973 -0.000000 -32.862282
LeftUpLeg -117.140739 4.574380 4.833050
LeftLeg -2.818377 -0.000000 0.000000
LeftFoot 11.563724 -6.757558 -25.230253
LeftToeBase 10.006401 -0.000000 -0.000000
RightUpLeg -105.265343 -18.150485 35.974428
RightLeg 0.466158 -0.000000 -0.000000
RightFoot -1.709641 -22.638988 19.957233
RightToeBase 5.179340 -0.000000 -0.000000
913
root 0.655225 31.601097 -12.417960 108.576256 35.951077 7.316417
Spine 43.946233 0.122189 -6.814168
Head 15.233392 -15.156439 -31.530760
LeftShoulder 9.682546 -50.736740 37.074504
LeftArm 34.507053 -20.493796 -40.545318
LeftForeArm 25.883536 -0.000000 43.634480
LeftHand -40.737882 -0.000000 71.051607
LeftHandThumb1 -26.253704 0.000000 33.147579
RightShoulder -11.352909 59.024945 -64.294042
RightArm 45.358123 8.590792 44.477234
RightForeArm -55.351424 0.000000 50.393822
RightHand -15.632550 -0.000000 -22.845823
RightHandThumb1 -24.326973 -0.000000 -32.862282
LeftUpLeg -117.169900 4.530456 4.732769
LeftLeg -2.826511 -0.000000 0.000000
LeftFoot 11.530338 -6.744069 -25.196252
LeftToeBase 10.059360 -0.000000 -0.000000
RightUpLeg -105.315182 -18.186653 35.829896
RightLeg 0.392990 -0.000000 -0.000000
RightFoot -1.671743 -22.671639 19.987179
RightToeBase 5.160526 -0.000000 -0.000000
914
root 0.656076 31.601496 -12.432430 108.615298 35.814851 7.304013
Spine 43.916043 0.013499 -6.774273
Head 15.472453 -15.202407 -31.528675
LeftShoulder 9.675453 -50.843473 36.973478
LeftArm 34.616563 -20.595415 -40.723947
LeftForeArm 25.844732 -0.000000 43.268105
LeftHand -40.857356 -0.000000 71.689399
LeftHandThumb1 -26.253704 0.000000 33.147579
RightShoulder -11.446283 59.241174 -64.450890
RightArm 45.430645 8.421327 44.428391
RightForeArm -55.403321 -0.000000 50.306997
RightHand -15.678837 -0.000000 -22.667142
RightHandThumb1 -24.326973 -0.000000 -32.862282
LeftUpLeg -117.224224 4.516631 4.643117
LeftLeg -2.825759 -0.000000 0.000000
LeftFoot 11.530236 -6.694953 -25.246704
LeftToeBase 10.063612 -0.000000 -0.000000
RightUpLeg -105.406689 -18.171220 35.763374
RightLeg 0.350729 -0.000000 -0.000000
RightFoot -1.614329 -22.666345 19.947329
RightToeBase 5.192155 -0.000000 -0.000000
915
root 0.658749 31.602067 -12.447108 108.673671 35.677111 7.298036
Spine 43.886025 -0.090930 -6.698164
Head 15.585753 -15.297361 -31.602959
LeftShoulder 9.652166 -51.581297 37.085324
LeftArm 34.037557 -20.416259 -41.103944
LeftForeArm 25.558072 -0.000000 43.133973
LeftHand -40.548012 -0.000000 72.463361
LeftHandThumb1 -26.253704 0.000000 33.147579
RightShoulder -11.655575 59.394705 -64.728723
RightArm 45.547027 8.302964 44.475514
RightForeArm -55.272724 0.000000 50.243929
RightHand -15.453273 -0.000000 -22.236098
RightHandThumb1 -24.326973 -0.000000 -32.862282
LeftUpLeg -117.294186 4.499057 4.555753
LeftLeg -2.820082 -0.000000 0.000000
LeftFoot 11.483755 -6.692171 -25.217357
LeftToeBase 10.191227 -0.000000 -0.000000
RightUpLeg -105.496184 -18.155282 35.711381
RightLeg 0.264868 -0.000000 -0.000000
RightFoot -1.531886 -22.629798 19.931583
RightToeBase 5.194881 -0.000000 -0.000000
916
root 0.667329 31.600344 -12.462313 108.686786 35.493278 7.326266
Spine 43.913510 -0.195434 -6.664418
Head 15.854483 -15.380419 -31.520341
LeftShoulder 9.807973 -51.856960 36.990626
LeftArm 33.726057 -20.459762 -41.185809
LeftForeArm 25.452026 0.000000 43.063089
LeftHand -40.574001 0.000000 72.926576
LeftHandThumb1 -26.253704 0.000000 33.147579
RightShoulder -11.703114 59.511972 -64.787866
RightArm 45.685004 8.161152 44.382925
RightForeArm -55.189977 -0.000000 50.110160
RightHand -15.310301 0.000000 -22.199943
RightHandThumb1 -24.326973 -0.000000 -32.862282
LeftUpLeg -117.287918 4.430516 4.455388
LeftLeg -2.821784 -0.000000 0.000000
LeftFoot 11.527694 -6.756069 -25.110954
LeftToeBase 9.673683 -0.000000 -0.000000
RightUpLeg -105.597235 -18.205177 35.677384
RightLeg 0.215376 -0.000000 -0.000000
RightFoot -1.459410 -22.529585 19.913323
RightToeBase 5.224666 -0.000000 -0.000000
917
root 0.673618 31.601247 -12.480187 108.744305 35.309966 7.358690
Spine 43.881510 -0.318745 -6.599155
Head 16.062814 -15.477934 -31.544274
LeftShoulder 9.953683 -52.048189 36.828088
LeftArm 33.459230 -20.483324 -41.193153
LeftForeArm 25.292983 -0.000000 43.033425
LeftHand -40.584472 -0.000000 73.259904
LeftHandThumb1 -26.253704 0.000000 33.147579
RightShoulder -11.747034 59.655592 -64.844762
RightArm 45.849501 7.955672 44.208416
RightForeArm -55.114505 -0.000000 49.942137
RightHand -15.310548 -0.000000 -22.160278
RightHandThumb1 -24.326973 -0.000000 -32.862282
LeftUpLeg -117.332376 4.366709 4.357832
LeftLeg -2.810263 -0.000000 0.000000
LeftFoot 11.360268 -6.729336 -25.088059
LeftToeBase 9.414491 -0.000000 -0.000000
RightUpLeg -105.733736 -18.234586 35.628294
RightLeg 0.170315 -0.000000 -0.000000
RightFoot -1.365753 -22.471531 19.852654
RightToeBase 5.233577 -0.000000 -0.000000
918
root 0.684383 31.600895 -12.496369 108.811051 35.098163 7.407167
Spine 43.847791 -0.468722 -6.585687
Head 16.261172 -15.538365 -31.580894
LeftShoulder 10.022303 -52.190223 36.704351
LeftArm 33.214886 -20.474562 -41.206394
LeftForeArm 25.203185 -0.000000 43.063589
LeftHand -40.670168 -0.000000 73.147160
LeftHandThumb1 -26.253704 0.000000 33.147579
RightShoulder -11.815999 59.847467 -64.953606
RightArm 45.926789 7.754462 44.146151
RightForeArm -55.134910 -0.000000 49.850832
RightHand -15.288688 0.000000 -22.037037
RightHandThumb1 -24.326973 -0.000000 -32.862282
LeftUpLeg -117.367540 4.273702 4.251043
LeftLeg -2.805860 -0.000000 0.000000
LeftFoot 11.379935 -6.677624 -24.911591
LeftToeBase 9.212291 -0.000000 -0.000000
RightUpLeg -105.892051 -18.285874 35.577345
RightLeg 0.135055 -0.000000 -0.000000
RightFoot -1.288847 -22.412057 19.832332
RightToeBase 5.215258 -0.000000 -0.000000
919
root 0.688142 31.601688 -12.510788 108.873143 34.928715 7.384885
Spine 43.720385 -0.526209 -6.539790
Head 16.612213 -15.602656 -31.597037
LeftShoulder 10.228639 -52.191909 36.461836
LeftArm 33.063087 -20.490188 -41.136018
LeftForeArm 25.208425 0.000000 43.078881
LeftHand -40.831130 -0.000000 73.533615
LeftHandThumb1 -26.253704 0.000000 33.147579
RightShoulder -11.775584 60.119278 -64.906541
RightArm 45.991024 7.473176 44.015465
RightForeArm -55.344819 0.000000 49.713417
RightHand -15.290523 -0.000000 -21.813682
RightHandThumb1 -24.326973 -0.000000 -32.862282
LeftUpLeg -117.449825 4.283945 4.173903
LeftLeg -2.778736 -0.000000 0.000000
LeftFoot 11.487270 -6.683491 -25.693790
LeftToeBase 9.263637 -0.000000 -0.000000
RightUpLeg -106.043785 -18.234787 35.568647
RightLeg 0.100384 -0.000000 -0.000000
RightFoot -1.172090 -22.344459 19.737875
RightToeBase 5.193487 -0.000000 -0.000000
920
root 0.698924 31.601067 -12.526446 108.916202 34.727014 7.445109
Spine 43.744702 -0.654835 -6.444028
Head 16.617650 -15.830297 -31.712364
LeftShoulder 10.297384 -52.248516 36.318331
LeftArm 32.878670 -20.498568 -41.088621
LeftForeArm 25.002194 -0.000000 43.119959
LeftHand -40.744631 -0.000000 73.655027
LeftHandThumb1 -26.253704 0.000000 33.147579
RightShoulder -11.992445 60.306440 -65.164904
RightArm 46.079961 7.229471 43.959525
RightForeArm -55.372195 -0.000000 49.568862
RightHand -15.241694 -0.000000 -21.697572
RightHandThumb1 -24.326973 -0.000000 -32.862282
LeftUpLeg -117.462426 4.189285 4.075935
LeftLeg -2.778645 -0.000000 0.000000
LeftFoot 11.351293 -6.761072 -25.383357
LeftToeBase 9.330834 -0.000000 -0.000000
RightUpLeg -106.228587 -18.276803 35.640250
RightLeg 0.089217 -0.000000 -0.000000
RightFoot -1.070820 -22.153934 19.664510
RightToeBase 5.204468 -0.000000 -0.000000
